<svg width="50" height="50" viewBox="0 0 50 50" fill="none" xmlns="http://www.w3.org/2000/svg">
<path d="M27.459 26.2408C23.391 26.2408 20.082 22.9318 20.082 18.8638C20.082 14.7958 23.391 11.4868 27.459 11.4868C31.527 11.4868 34.836 14.7958 34.836 18.8638C34.836 22.9318 31.527 26.2408 27.459 26.2408Z" fill="#D5CFFF"/>
<path d="M12.7051 41.8032C11.3501 41.8032 10.2461 42.9072 10.2461 44.2632C10.2461 45.6182 11.3501 46.7222 12.7051 46.7222C14.0611 46.7222 15.1641 45.6182 15.1641 44.2632C15.1641 42.9062 14.0611 41.8032 12.7051 41.8032ZM12.7051 45.0822C12.2531 45.0822 11.8861 44.7152 11.8861 44.2632C11.8861 43.8112 12.2531 43.4442 12.7051 43.4442C13.1581 43.4442 13.5251 43.8112 13.5251 44.2632C13.5251 44.7152 13.1571 45.0822 12.7051 45.0822Z" fill="#624BFF"/>
<path d="M37.2949 41.8032C35.9399 41.8032 34.8359 42.9072 34.8359 44.2632C34.8359 45.6182 35.9399 46.7222 37.2949 46.7222C38.6499 46.7222 39.7539 45.6182 39.7539 44.2632C39.7539 42.9062 38.6499 41.8032 37.2949 41.8032ZM37.2949 45.0822C36.8419 45.0822 36.4749 44.7152 36.4749 44.2632C36.4749 43.8112 36.8419 43.4442 37.2949 43.4442C37.7469 43.4442 38.1139 43.8112 38.1139 44.2632C38.1149 44.7152 37.7479 45.0822 37.2949 45.0822Z" fill="#624BFF"/>
<path d="M43.7289 33.6561C43.4039 32.6761 42.4799 31.9671 41.3929 31.9671H38.7919C37.2199 31.9671 35.6789 32.5621 34.5089 33.6071H29.9169V32.4221C29.9169 30.8151 28.6099 29.5081 27.0029 29.5081C25.9859 29.5081 25.0289 30.0511 24.5049 30.9231L22.8949 33.6071H20.8609C20.6019 33.6071 20.3709 33.4831 20.2289 33.2641C20.0869 33.0451 20.0659 32.7851 20.1719 32.5471L21.8199 28.8401C22.3589 27.6271 21.8149 26.1931 20.6089 25.6421C19.6019 25.1811 18.4099 25.4611 17.7109 26.3221L13.0429 32.0781L5.89188 34.2781C3.59288 34.9861 2.04688 37.0771 2.04688 39.4831V42.3911C2.04688 43.8751 3.25487 45.0821 4.73787 45.0821H7.02988C7.43288 47.8571 9.81988 50.0001 12.7049 50.0001C15.5899 50.0001 17.9769 47.8571 18.3769 45.0821H31.6229C32.0229 47.8571 34.4099 50.0001 37.2949 50.0001C40.1799 50.0001 42.5669 47.8571 42.9669 45.0821H43.0329C45.7449 45.0821 47.9509 42.8761 47.9509 40.1641V38.5241C47.9509 36.0491 46.1119 33.9951 43.7289 33.6561ZM25.9119 31.7671C26.1419 31.3851 26.5599 31.1481 27.0049 31.1481C27.7069 31.1481 28.2789 31.7191 28.2789 32.4221V33.6071H24.8079L25.9119 31.7671ZM12.7049 48.3611C10.4449 48.3611 8.60688 46.5221 8.60688 44.2621C8.60688 42.0021 10.4449 40.1631 12.7049 40.1631C14.9649 40.1631 16.8039 42.0021 16.8039 44.2621C16.8039 46.5221 14.9639 48.3611 12.7049 48.3611ZM37.2949 48.3611C35.0349 48.3611 33.1969 46.5221 33.1969 44.2621C33.1969 42.0021 35.0349 40.1631 37.2949 40.1631C39.5549 40.1631 41.3929 42.0021 41.3929 44.2621C41.3939 46.5221 39.5549 48.3611 37.2949 48.3611ZM46.3119 40.1641C46.3119 41.9731 44.8409 43.4431 43.0339 43.4431H42.9679C42.5689 40.6671 40.1809 38.5241 37.2959 38.5241C34.4109 38.5241 32.0249 40.6671 31.6239 43.4431H18.3769C17.9769 40.6671 15.5889 38.5241 12.7049 38.5241C9.82087 38.5241 7.43288 40.6671 7.03288 43.4431H4.73987C4.15887 43.4431 3.68788 42.9701 3.68788 42.3901V40.9841H5.73688C6.86688 40.9841 7.78587 40.0641 7.78587 38.9341C7.78587 37.8041 6.86688 36.8851 5.73688 36.8851H5.32688V38.5251H5.73688C5.96288 38.5251 6.14687 38.7091 6.14687 38.9341C6.14687 39.1591 5.96188 39.3441 5.73688 39.3441H3.69988C3.75888 37.7221 4.81387 36.3241 6.37587 35.8441L14.0049 33.4961L18.9869 27.3531C19.2159 27.0711 19.6039 26.9831 19.9299 27.1311C20.3229 27.3111 20.4999 27.7771 20.3249 28.1721L18.6769 31.8811C18.3469 32.6231 18.4149 33.4741 18.8579 34.1561C19.3009 34.8381 20.0509 35.2441 20.8639 35.2441H35.1769L35.4169 35.0041C36.3059 34.1151 37.5369 33.6061 38.7939 33.6061H41.3949C41.8469 33.6061 42.2139 33.9731 42.2139 34.4251V35.2441H43.0339C44.8419 35.2441 46.3119 36.7151 46.3119 38.5231V40.1641V40.1641Z" fill="#624BFF"/>
<path d="M28.2777 21.3121H26.6377C26.1857 21.3121 25.8187 21.3121 25.8187 20.4921H24.1797C24.1797 22.1321 25.2827 22.9631 26.6377 22.9631V23.7711H28.2777V22.9631C29.6337 22.9631 30.7367 21.8541 30.7367 20.4981C30.7367 19.1421 29.6337 18.0331 28.2777 18.0331H26.6377C26.1857 18.0331 25.8187 17.6661 25.8187 17.2131C25.8187 16.7611 26.1857 16.3941 26.6377 16.3941H28.2777C28.7297 16.3941 29.0967 16.3941 29.0967 17.2131H30.7367C30.7367 15.5741 29.6337 14.7661 28.2777 14.7661V13.9351H26.6377V14.7661C25.2827 14.7661 24.1797 15.8641 24.1797 17.2191C24.1797 18.5751 25.2827 19.6731 26.6377 19.6731H28.2777C28.7297 19.6731 29.0967 20.0401 29.0967 20.4921C29.0977 20.9441 28.7307 21.3121 28.2777 21.3121Z" fill="#624BFF"/>
<path d="M28.2797 4.0979H26.6387V9.8359H28.2797V4.0979Z" fill="#624BFF"/>
<path d="M28.2797 0.831055H26.6387V2.47105H28.2797V0.831055Z" fill="#624BFF"/>
<path d="M33.1976 3.27905H31.5566V11.4761H33.1976V3.27905Z" fill="#624BFF"/>
<path d="M33.1976 0H31.5566V1.64H33.1976V0Z" fill="#624BFF"/>
<path d="M23.3607 5.73804H21.7207V11.476H23.3607V5.73804Z" fill="#624BFF"/>
<path d="M23.3607 2.47095H21.7207V4.10995H23.3607V2.47095Z" fill="#624BFF"/>
</svg>
