<svg width="50" height="50" viewBox="0 0 50 50" fill="none" xmlns="http://www.w3.org/2000/svg">
<path d="M7.25781 4.03223H42.7418" stroke="#624BFF" stroke-width="2" stroke-miterlimit="10"/>
<path d="M13.7105 50C10.5985 50 8.06445 47.467 8.06445 44.355C8.06445 41.242 10.5975 38.709 13.7105 38.709C16.8235 38.709 19.3555 41.242 19.3555 44.355C19.3555 47.467 16.8225 50 13.7105 50Z" fill="#D5CFFF"/>
<path d="M35.4839 44.355C32.3719 44.355 29.8379 41.822 29.8379 38.709C29.8379 35.598 32.3709 33.064 35.4839 33.064C38.5949 33.064 41.1289 35.597 41.1289 38.709C41.1289 41.822 38.5959 44.355 35.4839 44.355Z" fill="#D5CFFF"/>
<path d="M41.1292 0H8.87115C7.53715 0 6.45215 1.085 6.45215 2.419V21.774C6.45215 23.107 7.53715 24.193 8.87115 24.193H41.1292C42.4632 24.193 43.5491 23.108 43.5491 21.774V2.419C43.5491 1.085 42.4632 0 41.1292 0ZM8.87115 1.613H41.1292C41.5742 1.613 41.9361 1.975 41.9361 2.42V7.259H8.06415V2.419C8.06415 1.975 8.42615 1.613 8.87115 1.613ZM41.1292 22.581H8.87115C8.42615 22.581 8.06415 22.219 8.06415 21.775V8.871H41.9352V21.774C41.9362 22.218 41.5742 22.581 41.1292 22.581Z" fill="#624BFF"/>
<path d="M34.678 11.291C33.796 11.291 32.971 11.532 32.258 11.946C31.545 11.532 30.721 11.291 29.839 11.291C27.17 11.291 25 13.461 25 16.129C25 18.798 27.17 20.968 29.839 20.968C30.721 20.968 31.545 20.727 32.258 20.313C32.971 20.727 33.796 20.968 34.678 20.968C37.346 20.968 39.516 18.798 39.516 16.129C39.516 13.46 37.346 11.291 34.678 11.291ZM32.258 18.24C31.762 17.673 31.451 16.94 31.451 16.129C31.451 15.318 31.762 14.586 32.258 14.018C32.754 14.585 33.065 15.318 33.065 16.129C33.064 16.94 32.754 17.672 32.258 18.24ZM26.613 16.129C26.613 14.35 28.059 12.903 29.838 12.903C30.216 12.903 30.572 12.981 30.91 13.1C30.241 13.93 29.838 14.983 29.838 16.129C29.838 17.275 30.241 18.328 30.91 19.158C30.572 19.277 30.216 19.355 29.838 19.355C28.061 19.355 26.613 17.908 26.613 16.129ZM34.678 19.355C34.3 19.355 33.944 19.277 33.607 19.158C34.276 18.328 34.678 17.275 34.678 16.129C34.678 14.983 34.276 13.93 33.607 13.1C33.944 12.98 34.3 12.903 34.678 12.903C36.457 12.903 37.904 14.35 37.904 16.129C37.903 17.908 36.457 19.355 34.678 19.355Z" fill="#624BFF"/>
<path d="M9.67745 31.4512H8.06445V37.9032H9.67745V31.4512Z" fill="#624BFF"/>
<path d="M9.67745 28.2261H8.06445V29.8391H9.67745V28.2261Z" fill="#624BFF"/>
<path d="M19.3552 25.8071H17.7422V36.2911H19.3552V25.8071Z" fill="#624BFF"/>
<path d="M14.5163 29.8389H12.9033V37.0969H14.5163V29.8389Z" fill="#624BFF"/>
<path d="M14.5163 26.6128H12.9033V28.2248H14.5163V26.6128Z" fill="#624BFF"/>
<path d="M31.4509 27.4199H29.8389V33.0649H31.4509V27.4199Z" fill="#624BFF"/>
<path d="M41.1296 25.8071H39.5166V30.6451H41.1296V25.8071Z" fill="#624BFF"/>
<path d="M36.2907 29.0322H34.6777V31.4512H36.2907V29.0322Z" fill="#624BFF"/>
<path d="M36.2907 25.8071H34.6777V27.4201H36.2907V25.8071Z" fill="#624BFF"/>
</svg>
