<svg width="50" height="50" viewBox="0 0 50 50" fill="none" xmlns="http://www.w3.org/2000/svg">
<path d="M22.5814 8.06295L13.7104 5.64695L11.5304 7.45995C10.8454 6.43395 10.4844 5.23895 10.4844 4.00595V2.01795C10.4844 0.905953 11.3884 0.00195312 12.5004 0.00195312C13.6124 0.00195312 14.5164 0.905953 14.5164 2.01795V2.82495C14.5164 3.04695 14.6974 3.22795 14.9194 3.22795C15.1414 3.22795 15.3224 3.04595 15.3224 2.82495V2.01795C15.3224 0.905953 16.2264 0.00195312 17.3384 0.00195312C18.4504 0.00195312 19.3544 0.905953 19.3544 2.01795V2.82495C19.3544 3.04695 19.5354 3.22795 19.7574 3.22795C19.9794 3.22795 20.1604 3.04595 20.1604 2.82495V2.01795C20.1604 0.905953 21.0644 0.00195312 22.1764 0.00195312C23.2884 0.00195312 24.1924 0.905953 24.1924 2.01795V4.00595C24.1924 5.23895 23.8314 6.43395 23.1464 7.45995L22.5814 8.06295Z" fill="#D5CFFF"/>
<path d="M9.868 20.1599L8.255 19.3529H5.645V7.25586H0V22.5789H5.645V20.9659H7.874L9.487 21.7729H10.484V20.1599H9.868ZM4.032 20.9659H1.613V8.86886H4.032V20.9659Z" fill="#624BFF"/>
<path d="M17.7476 37.904C17.6016 37.904 17.4566 37.902 17.3096 37.896C11.8666 37.676 7.35758 33.062 7.25958 27.612C7.20858 24.8 8.26058 22.142 10.2216 20.126C11.9506 18.348 12.9036 16.129 12.9036 13.881L16.9356 11.292L18.5486 12.905V20.967H24.1936L25.1376 19.996C27.1296 21.976 28.2256 24.613 28.2256 27.422C28.2256 30.303 27.0806 32.988 25.0026 34.985C23.0316 36.877 20.4686 37.904 17.7476 37.904Z" fill="#D5CFFF"/>
<path d="M21.774 25.8048V25.4048C21.774 23.8478 20.507 22.5788 18.951 22.5788H18.548V20.9658H16.935V22.5788H16.532C14.975 22.5788 13.709 23.8448 13.709 25.4008C13.709 26.9578 14.975 28.2238 16.532 28.2238H18.951C19.618 28.2238 20.161 28.7658 20.161 29.4328C20.161 30.0998 19.618 30.6428 18.951 30.6428H16.532C15.865 30.6428 15.322 30.1028 15.322 29.4368V29.0298H13.709V29.4368C13.709 30.9938 14.975 32.2548 16.532 32.2548H16.935V33.8678H18.548V32.2548H18.951C20.507 32.2548 21.774 30.9888 21.774 29.4328C21.774 27.8768 20.507 26.6108 18.951 26.6108H16.532C15.865 26.6108 15.322 26.0678 15.322 25.4008C15.322 24.7338 15.865 24.1918 16.532 24.1918H18.951C19.618 24.1918 20.16 24.7378 20.16 25.4048V25.8048H21.774V25.8048Z" fill="#624BFF"/>
<path d="M25.1769 11.2919C25.5639 10.8629 25.8059 10.2989 25.8059 9.67793C25.8059 8.34393 24.7209 7.25693 23.3869 7.25693H20.3849L19.8239 6.55493L13.5219 4.75293L8.57887 8.86893H4.83887V10.4819H9.16287L13.8979 6.53793L18.8859 7.96293L20.5829 10.0839C20.8069 10.3639 20.9059 10.7159 20.8609 11.0719C20.8159 11.4279 20.6319 11.7449 20.3439 11.9599C19.8239 12.3499 19.0839 12.2969 18.6229 11.8369L16.9959 10.2099L12.3999 13.8869L13.4069 15.1469L16.8759 12.3719L17.4819 12.9789C17.5709 13.0679 17.6699 13.1399 17.7679 13.2149C17.8269 13.8029 18.0409 14.1499 18.3709 14.5149C17.9839 14.9439 17.7419 15.5069 17.7419 16.1289C17.7419 16.7509 17.9849 17.3139 18.3709 17.7419C17.9839 18.1709 17.7419 18.7309 17.7419 19.3529C17.7419 20.6879 18.8269 21.7719 20.1609 21.7719H23.3869C24.7209 21.7719 25.8059 20.6879 25.8059 19.3539C25.8059 18.7319 25.5639 18.1709 25.1769 17.7419C25.5639 17.3129 25.8059 16.7519 25.8059 16.1289C25.8059 15.5059 25.5639 14.9449 25.1769 14.5159C25.5639 14.0869 25.8059 13.5249 25.8059 12.9029C25.8059 12.2809 25.5629 11.7209 25.1769 11.2919ZM23.3869 20.1599H20.1609C19.7169 20.1599 19.3549 19.7979 19.3549 19.3529C19.3549 18.9079 19.7169 18.5469 20.1609 18.5469H23.3869C23.8309 18.5469 24.1929 18.9089 24.1929 19.3529C24.1929 19.7979 23.8319 20.1599 23.3869 20.1599ZM23.3869 16.9339H20.1609C19.7169 16.9339 19.3549 16.5719 19.3549 16.1279C19.3549 15.6839 19.7169 15.3209 20.1609 15.3209H23.3869C23.8309 15.3209 24.1929 15.6829 24.1929 16.1279C24.1929 16.5729 23.8319 16.9339 23.3869 16.9339ZM23.3869 13.7079H20.3989C20.7209 13.6119 21.0309 13.4619 21.3119 13.2509C21.7179 12.9459 22.0189 12.5449 22.2179 12.0949H23.3869C23.8309 12.0949 24.1929 12.4569 24.1929 12.9009C24.1929 13.3459 23.8319 13.7079 23.3869 13.7079ZM23.3869 10.4819H22.4409C22.3669 9.97393 22.1719 9.48993 21.8419 9.07593L21.6759 8.86993H23.3869C23.8309 8.86993 24.1929 9.23193 24.1929 9.67593C24.1929 10.1199 23.8319 10.4819 23.3869 10.4819Z" fill="#624BFF"/>
<path d="M44.355 37.9009V40.3199H38.954L36.738 38.8429L29.941 36.4329C29.295 36.2039 28.599 36.2509 27.988 36.5619C27.377 36.8729 26.93 37.4039 26.731 38.0609C26.386 39.1969 26.898 40.4269 27.947 40.9839L29.693 41.9109L27.154 41.9199L26.11 39.3099C25.767 38.4559 24.949 37.9019 24.027 37.9019C23.307 37.9019 22.626 38.2529 22.206 38.8369C21.786 39.4219 21.672 40.1789 21.902 40.8599L22.146 41.5849L20.377 40.6179C19.814 40.3089 19.141 40.2489 18.533 40.4549C17.924 40.6579 17.423 41.1099 17.158 41.6949C16.64 42.8389 17.117 44.1709 18.243 44.7249L22.223 46.6899L30.486 48.3709L41.208 48.3859L44.354 47.7569V49.9989H50V37.9009H44.355ZM23.516 39.7759C23.787 39.3979 24.44 39.4779 24.612 39.9099L25.419 41.9249L23.966 41.9299L23.432 40.3439C23.366 40.1499 23.396 39.9429 23.516 39.7759ZM41.049 46.7719H30.725L22.843 45.1949L18.957 43.2789C18.616 43.1099 18.471 42.7069 18.628 42.3589C18.709 42.1779 18.857 42.0449 19.045 41.9819C19.232 41.9179 19.432 41.9369 19.605 42.0329L22.375 43.5469H30.029L33.211 41.9549L28.704 39.5589C28.335 39.3629 28.154 38.9289 28.275 38.5289C28.345 38.2969 28.502 38.1089 28.718 37.9999C28.933 37.8899 29.179 37.8749 29.406 37.9539L35.927 40.2419L38.464 41.9329H44.355V46.1109L41.049 46.7719ZM48.387 48.3849H45.968V39.5149H48.387V48.3849Z" fill="#624BFF"/>
</svg>
