<svg width="50" height="50" viewBox="0 0 50 50" fill="none" xmlns="http://www.w3.org/2000/svg">
<path d="M22.6846 13.351L19.4716 9.33398L16.2576 13.351H2.60059V28.615H6.61759V21.786C6.61759 19.345 8.59559 17.367 11.0366 17.367C13.4766 17.367 15.4546 19.345 15.4546 21.786V28.615H36.3416V13.351H22.6846ZM32.3256 22.992H21.0776V16.565H32.3256V22.992Z" fill="#D5CFFF"/>
<path d="M44.3772 36.6482V39.0582H38.9962L36.7892 37.5852L30.0182 35.1832C29.3732 34.9562 28.6822 35.0022 28.0732 35.3122C27.4642 35.6212 27.0192 36.1522 26.8212 36.8052C26.4772 37.9382 26.9872 39.1622 28.0322 39.7162L29.7702 40.6402L27.2422 40.6482L26.2022 38.0482C25.8602 37.1952 25.0472 36.6462 24.1282 36.6462C23.4112 36.6462 22.7322 36.9942 22.3142 37.5762C21.8962 38.1582 21.7822 38.9132 22.0112 39.5942L22.2542 40.3152L20.4922 39.3512C19.9302 39.0442 19.2612 38.9852 18.6552 39.1892C18.0492 39.3912 17.5502 39.8422 17.2862 40.4242C16.7702 41.5642 17.2452 42.8902 18.3672 43.4442L22.3322 45.4012L30.5642 47.0752L41.2452 47.0912L44.3792 46.4642V48.7002H50.0002V36.6482H44.3772ZM23.6182 38.5142C23.8872 38.1382 24.5372 38.2172 24.7092 38.6472L25.5122 40.6552L24.0652 40.6592L23.5332 39.0812C23.4672 38.8872 23.4982 38.6802 23.6182 38.5142ZM44.3772 44.8242L41.0842 45.4862H30.7992L22.9462 43.9142L19.0752 42.0042C18.7352 41.8362 18.5912 41.4342 18.7472 41.0872C18.8282 40.9082 18.9752 40.7742 19.1622 40.7132C19.3482 40.6492 19.5472 40.6682 19.7202 40.7642L22.4802 42.2732H30.1052L33.2752 40.6862L28.7852 38.2972C28.4162 38.1032 28.2362 37.6702 28.3572 37.2722C28.4272 37.0412 28.5842 36.8532 28.7992 36.7452C29.0142 36.6362 29.2572 36.6202 29.4862 36.6982L35.9812 38.9792L38.5092 40.6672H44.3762V44.8242H44.3772ZM48.3942 47.0932H45.9842V38.2562H48.3942V47.0932V47.0932Z" fill="#624BFF"/>
<path d="M38.7524 27.8129H16.2584V21.7869C16.2584 18.9079 13.9164 16.5649 11.0364 16.5649C8.15643 16.5649 5.81443 18.9079 5.81443 21.7869V27.8129H0.19043V32.6329H38.7524V27.8129V27.8129ZM7.42143 21.7869C7.42143 19.7939 9.04343 18.1719 11.0364 18.1719C13.0294 18.1719 14.6514 19.7939 14.6514 21.7869V27.8129H7.42143V21.7869V21.7869ZM37.1464 31.0249H1.79743V29.4179H5.81443H16.2584H37.1474V31.0249H37.1464Z" fill="#624BFF"/>
<path d="M11.438 14.154H16.644L19.472 10.62L22.3 14.154H27.507H29.138H38.945L36.189 1.30005H2.754L0 14.154H9.806H11.438ZM23.071 12.548L19.472 8.04805L15.873 12.548H13.07L19.472 4.22505L25.873 12.548H23.071ZM36.955 12.548H27.9L20.484 2.90705H34.888L36.955 12.548ZM1.987 12.548L4.053 2.90705H18.458L11.042 12.548H1.987Z" fill="#624BFF"/>
<path d="M20.2754 23.7952H33.1294V15.7612H20.2754V23.7952ZM21.8824 20.5822H25.8994V22.1882H21.8824V20.5822ZM27.5064 22.1882V20.5822H31.5224V22.1882H27.5064ZM31.5224 18.9752H27.5054V17.3682H31.5224V18.9752ZM25.8984 17.3682V18.9752H21.8814V17.3682H25.8984Z" fill="#624BFF"/>
</svg>
